<?xml version="1.0" standalone="no"?>
<!DOCTYPE svg PUBLIC "-//W3C//DTD SVG 20010904//EN"
 "http://www.w3.org/TR/2001/REC-SVG-20010904/DTD/svg10.dtd">
<svg version="1.0" xmlns="http://www.w3.org/2000/svg"
 width="512.000000pt" height="512.000000pt" viewBox="0 0 512.000000 512.000000"
 preserveAspectRatio="xMidYMid meet">
<metadata>
Created by potrace 1.11, written by Peter Selinger 2001-2013
</metadata>
<g transform="translate(0.000000,512.000000) scale(0.100000,-0.100000)"
fill="#000000" stroke="none">
<path d="M2939 3779 c-23 -41 -79 -137 -124 -214 -45 -77 -94 -162 -110 -190
-76 -138 -219 -381 -227 -386 -6 -3 -9 -10 -9 -15 0 -7 -142 -257 -284 -499
-11 -19 -35 -63 -54 -97 -18 -35 -35 -65 -37 -67 -8 -8 -33 34 -29 47 3 7 1
11 -4 8 -5 -3 -16 9 -25 27 -21 40 -44 80 -79 134 -15 24 -27 45 -27 47 0 3
-14 29 -31 58 -18 29 -39 67 -49 83 -181 318 -371 645 -374 645 -4 0 -66 -100
-66 -105 0 -3 -22 -42 -49 -87 -26 -46 -128 -222 -226 -393 -98 -170 -186
-323 -196 -340 -10 -16 -22 -37 -26 -45 -4 -8 -77 -137 -164 -286 -86 -149
-168 -291 -182 -315 -13 -24 -52 -91 -85 -147 -34 -57 -62 -108 -62 -113 0 -5
-4 -9 -8 -9 -4 0 -13 -12 -20 -27 -6 -16 -30 -61 -53 -102 -35 -63 -40 -77
-30 -98 11 -24 12 -24 163 -23 84 0 889 1 1788 1 2641 0 2529 -1 2546 16 7 8
14 20 14 27 0 8 -61 118 -135 246 -74 128 -135 234 -135 236 0 1 -26 46 -58
101 -32 54 -72 123 -89 153 -17 30 -62 109 -100 175 -39 66 -102 176 -142 245
-39 69 -76 132 -81 140 -5 8 -22 38 -36 65 -22 41 -83 147 -124 215 -5 8 -43
74 -84 145 -41 72 -92 161 -114 198 l-40 68 -92 -160 c-51 -89 -96 -161 -101
-161 -4 0 -14 12 -22 28 -11 22 -349 610 -417 727 -10 17 -29 50 -43 74 l-25
43 -43 -73z"/>
</g>
</svg>
